<?xml version="1.0" standalone="no"?>
<!DOCTYPE svg PUBLIC "-//W3C//DTD SVG 20010904//EN"
 "http://www.w3.org/TR/2001/REC-SVG-20010904/DTD/svg10.dtd">
<svg version="1.0" xmlns="http://www.w3.org/2000/svg"
 width="124.000000pt" height="124.000000pt" viewBox="0 0 124.000000 124.000000"
 preserveAspectRatio="xMidYMid meet">

<g transform="translate(0.000000,124.000000) scale(0.100000,-0.100000)"
fill="#000000" stroke="none">
<path d="M535 1233 c-16 -2 -55 -11 -85 -19 -161 -45 -344 -209 -416 -374 -26
-60 -29 -75 -29 -190 0 -213 48 -335 186 -472 121 -121 260 -178 430 -178 72
0 168 16 183 31 6 5 20 9 31 9 75 0 246 137 317 255 67 111 83 173 82 320 0
113 -4 138 -25 196 -93 243 -252 380 -484 414 -98 15 -130 16 -190 8z m272
-73 c35 -12 79 -33 98 -46 20 -13 42 -24 49 -24 19 0 99 -82 141 -145 56 -86
77 -154 82 -280 5 -93 2 -123 -16 -190 -75 -273 -283 -425 -582 -425 -75 0
-99 4 -142 24 -29 14 -64 27 -79 30 -41 9 -152 118 -209 205 -116 178 -127
377 -29 576 56 116 122 185 223 235 45 22 114 47 152 55 94 19 231 13 312 -15z"/>
<path d="M900 1006 c0 -14 -38 -16 -306 -18 l-306 -3 1 -144 c1 -80 4 -148 7
-153 3 -4 13 -3 23 4 11 7 38 8 74 4 l57 -7 0 -52 c-1 -140 -20 -420 -30 -432
-6 -7 -7 -15 -3 -18 4 -3 86 -6 182 -8 l174 -3 -2 267 -2 267 51 0 c28 0 61
-5 72 -11 37 -20 42 0 31 123 -5 64 -6 118 -1 125 10 12 1 60 -13 69 -5 3 -9
-2 -9 -10z m-257 -57 l247 -13 0 -30 c0 -17 -3 -61 -7 -98 l-6 -68 -67 0 -68
0 -6 -57 c-3 -32 -11 -148 -17 -258 -6 -110 -11 -201 -12 -201 -1 -1 -50 -4
-108 -6 l-107 -5 -6 86 c-3 47 -8 170 -12 274 -4 103 -11 187 -15 187 -5 0 -9
-7 -9 -15 0 -12 -14 -15 -65 -15 l-65 0 0 98 c0 53 -3 108 -7 121 -6 23 -5 24
38 18 24 -4 155 -12 292 -18z"/>
</g>
</svg>
